<?xml version="1.0" encoding="UTF-8" standalone="no"?> <!-- Created with Vectornator for iOS (http://vectornator.io/) --><!DOCTYPE svg PUBLIC "-//W3C//DTD SVG 1.1//EN" "http://www.w3.org/Graphics/SVG/1.1/DTD/svg11.dtd">
<svg height="100%" style="fill-rule:nonzero;clip-rule:evenodd;stroke-linecap:round;stroke-linejoin:round;" xmlns:xlink="http://www.w3.org/1999/xlink" xmlns="http://www.w3.org/2000/svg" xml:space="preserve" width="100%" xmlns:vectornator="http://vectornator.io" version="1.1" viewBox="0 0 300 60">
<defs/>
<g id="Untitled" vectornator:layerName="Untitled">
<path d="M61.663+24.814C61.321+24.3364+60.8074+23.965+60.2572+23.7442C60.1204+23.6872+59.983+23.6398+59.8198+23.5936L59.6416+23.5438L59.4178+23.4958C59.14+23.44+58.8448+23.4004+58.5286+23.3938C58.2124+23.389+57.874+23.4226+57.5308+23.5102C57.1882+23.5966+56.8438+23.7436+56.533+23.9368C55.903+24.325+55.4362+24.868+55.0792+25.3936C54.367+26.458+53.9524+27.5218+53.5+28.5154C53.0542+29.5078+52.5892+30.436+52.0276+31.2088C51.4882+31.9618+50.812+32.5228+50.1172+32.9026C48.4+33.4912+46.9822+34.2316+46.0906+33.0706C45.5074+32.311+46.1362+31.648+46.7698+30.8776C46.921+30.7084+47.0722+30.5326+47.2246+30.3406C47.5912+29.8696+47.9374+29.374+48.2494+28.8532C48.5662+28.336+48.853+27.7966+49.123+27.25C49.3936+26.7034+49.6396+26.1418+49.8466+25.5658C50.2582+24.4144+50.5318+23.2078+50.6002+22C50.6638+20.7934+50.5384+19.594+50.2234+18.49C50.1466+18.214+50.053+17.9452+49.9504+17.683C49.8874+17.5132+49.8616+17.4562+49.7932+17.2948C49.7338+17.1514+49.6774+17.032+49.6138+16.9048C49.3654+16.4032+49.0696+15.943+48.736+15.5314C48.073+14.7082+47.2516+14.0722+46.375+13.7248C45.9376+13.5526+45.4936+13.4464+45.0658+13.417C44.6482+13.3822+44.2246+13.4092+43.843+13.5166C43.4584+13.621+43.1164+13.8148+42.8602+14.0554C42.6016+14.2954+42.4312+14.5768+42.3346+14.8474C42.1426+15.3862+42.2248+15.9082+42.4972+16.1854C42.6298+16.3228+42.7834+16.3708+42.8746+16.3852C42.9682+16.3996+43.0144+16.3948+43.0144+16.3948C43.1284+16.3984+43.2244+16.309+43.228+16.1944C43.231+16.0804+43.141+15.9844+43.0276+15.9814C43.03+15.9772+42.9274+15.9808+42.8578+15.8704C42.8212+15.8146+42.7918+15.7138+42.7966+15.5764C42.802+15.4402+42.8452+15.2728+42.937+15.1078C43.1164+14.7724+43.5046+14.476+44.0356+14.419C44.3014+14.3872+44.5936+14.4064+44.9092+14.482C45.217+14.5552+45.5254+14.6866+45.8236+14.8642C46.4158+15.226+46.9636+15.79+47.3746+16.492C47.581+16.8418+47.7526+17.2252+47.8822+17.6284C47.914+17.7274+47.947+17.8366+47.9692+17.9278C47.986+17.9992+48.0376+18.1786+48.0424+18.2488C48.0796+18.4672+48.1096+18.688+48.1324+18.9112C48.22+19.804+48.148+20.7364+47.9314+21.6484C47.7208+22.5616+47.3878+23.4622+46.9336+24.3022C46.7068+24.7222+46.456+25.1296+46.1782+25.5148C45.8992+25.9+45.583+26.2558+45.2566+26.5912C44.9266+26.9254+44.5816+27.2374+44.2306+27.529C43.8766+27.8248+43.5268+28.117+43.183+28.4044C42.9922+28.564+42.8038+28.7236+42.6178+28.8844C41.1154+30.1198+40.237+30.6724+39.604+30.865C40.2346+29.1544+40.5976+27.2812+40.5976+25.5376C40.5976+20.4328+37.3696+18.9166+33.6628+18.3658C29.9566+18.9166+26.7292+20.4322+26.7292+25.5376C26.7292+27.2464+27.0784+29.0776+27.685+30.76C26.6854+30.34+25.2664+29.3302+23.8222+27.4876C23.4502+26.9602+23.0596+26.4238+22.6468+25.8796C22.4386+25.6186+22.24+25.3474+22.0342+25.0738C21.8224+24.8044+21.619+24.5248+21.4114+24.2416C21.004+23.6728+20.6056+23.077+20.2432+22.4464C20.1562+22.2874+20.0692+22.1278+19.9816+21.967L19.8502+21.7252C19.8394+21.7018+19.855+21.7402+19.8508+21.73L19.843+21.7132L19.828+21.6796L19.798+21.6124L19.7374+21.478L19.6168+21.2086L19.5154+20.9668C19.4476+20.809+19.3804+20.6416+19.3156+20.4694C19.0552+19.7878+18.8308+19.0888+18.6742+18.3796C18.3514+16.9636+18.2794+15.499+18.5824+14.1292C18.877+12.7606+19.5514+11.4868+20.5444+10.483C21.5302+9.478+22.8028+8.7358+24.115+8.3614C24.769+8.1724+25.4362+8.0716+26.0548+8.0956C26.2096+8.1004+26.359+8.1154+26.5048+8.1358C26.5762+8.1484+26.6488+8.1586+26.7172+8.1748L26.8216+8.1982L26.9548+8.2312C27.2884+8.3146+27.5992+8.4016+27.8668+8.5102C28.1368+8.617+28.3576+8.7412+28.5466+8.9032C28.738+9.0616+28.9006+9.2662+29.0446+9.5056L29.098+9.5962L29.1106+9.619L29.1178+9.6304C29.128+9.6508+29.1118+9.6148+29.116+9.6238L29.1442+9.6796L29.2+9.7906L29.236+9.871C29.2852+9.9724+29.3266+10.1044+29.3608+10.2202C29.4208+10.4596+29.4406+10.7008+29.4196+10.9426C29.371+11.425+29.1628+11.9062+28.8646+12.3232C28.7488+12.4774+28.5748+12.6508+28.4002+12.7738C28.2214+12.901+28.0288+13.0006+27.8302+13.0672C27.4336+13.1986+27.0214+13.2154+26.665+13.126C26.575+13.108+26.491+13.0762+26.407+13.048L26.3914+13.0426C26.416+13.0552+26.3932+13.0432+26.3962+13.045L26.3872+13.0414L26.3518+13.0252L26.2816+12.9928C26.2294+12.9706+26.2018+12.952+26.1688+12.9334C26.0338+12.8596+25.894+12.7564+25.789+12.6484C25.5646+12.4348+25.429+12.1828+25.3468+11.9542C25.2658+11.7226+25.2454+11.509+25.2436+11.3368C25.2448+11.2504+25.2472+11.1736+25.2568+11.1076C25.2646+11.041+25.2712+10.9846+25.2826+10.9408C25.3018+10.8514+25.3114+10.8046+25.3114+10.8046L25.3162+10.7836C25.3372+10.6816+25.2784+10.5772+25.1764+10.5448C25.0672+10.5106+24.9508+10.5706+24.9166+10.6798C24.9166+10.6798+24.9004+10.7326+24.8668+10.8364C24.8488+10.8874+24.8332+10.9534+24.817+11.0332C24.7966+11.1118+24.7846+11.2048+24.7732+11.311C24.754+11.5234+24.7528+11.7946+24.8284+12.103C24.9052+12.409+25.0516+12.7582+25.3216+13.0744C25.456+13.2364+25.6096+13.381+25.8118+13.5202C25.8622+13.555+25.9186+13.5934+25.9588+13.615L26.0254+13.6534L26.059+13.6726L26.0674+13.6774L26.0902+13.69L26.1106+13.6996C26.2198+13.7506+26.3314+13.804+26.4514+13.8418C26.9266+14.0104+27.4924+14.0482+28.0666+13.918C28.354+13.8508+28.6396+13.7362+28.912+13.576C29.1874+13.4122+29.4328+13.2214+29.6806+12.9436C30.0766+12.4792+30.4576+11.8846+30.619+11.1412C30.6976+10.7716+30.7132+10.372+30.6592+9.9778C30.6274+9.778+30.5914+9.5932+30.5236+9.3874L30.4744+9.2374L30.4312+9.121L30.4102+9.0628L30.373+8.9782L30.3136+8.8456C30.151+8.4928+29.9308+8.1262+29.626+7.8046C29.326+7.4788+28.9534+7.2148+28.582+7.0186C28.21+6.8182+27.8386+6.6724+27.4774+6.5386L27.349+6.4912C27.2986+6.472+27.2428+6.457+27.19+6.4402C27.082+6.4048+26.9752+6.3784+26.8666+6.3514C26.6512+6.301+26.434+6.2608+26.2174+6.2356C25.3492+6.1288+24.484+6.1924+23.6338+6.361C21.9382+6.7096+20.287+7.5052+18.8938+8.719C17.5+9.9256+16.417+11.5996+15.892+13.432C15.3628+15.2668+15.3574+17.1868+15.6472+18.9544C15.7876+19.843+16.0066+20.6998+16.264+21.5236C16.3276+21.7288+16.3954+21.9352+16.471+22.1458L16.5814+22.4578L16.6852+22.7338C16.8322+23.128+16.978+23.5198+17.1226+23.908C17.7214+25.4446+18.3478+26.9296+19.1194+28.2304C19.2274+28.4146+19.3384+28.5928+19.4524+28.7686C21.1816+31.585+22.9708+31.9894+21.9664+33.0682C21.451+33.6214+20.5336+33.7702+19.5478+33.6496C19.5256+33.6466+19.5034+33.6448+19.4824+33.6418C19.4254+33.634+19.3678+33.6238+19.3102+33.6142C19.2178+33.5992+19.1248+33.5806+19.0324+33.562C18.9718+33.5494+18.9112+33.5368+18.85+33.523C18.832+33.5188+18.814+33.514+18.7966+33.5104C18.3418+33.397+17.8912+33.235+17.4748+33.0358L17.2924+32.9434C16.5748+32.5654+15.8728+31.9936+15.3142+31.2196C14.7502+30.4492+14.2828+29.5222+13.834+28.531C13.3786+27.5392+12.9604+26.476+12.2452+25.414C11.887+24.889+11.4184+24.3484+10.7872+23.9608C10.4758+23.7694+10.1314+23.623+9.78819+23.5372C9.44499+23.4508+9.10659+23.4184+8.78979+23.4244C8.47359+23.431+8.17779+23.4724+7.90179+23.5282L7.67799+23.5774L7.49979+23.6278C7.33719+23.6746+7.19919+23.722+7.06239+23.779C6.51279+24.0028+6.00039+24.3748+5.66019+24.8542C5.31339+25.3294+5.15079+25.8814+5.13879+26.3854C5.12439+26.8912+5.24139+27.358+5.44599+27.748C5.64939+28.1392+5.94699+28.4572+6.28719+28.6552C6.62739+28.8562+6.99939+28.9198+7.30539+28.9012C7.61559+28.8856+7.86579+28.7962+8.06619+28.7086C8.26539+28.6168+8.41719+28.5184+8.53359+28.4326C8.64999+28.348+8.73339+28.2778+8.78799+28.2298C8.84199+28.1812+8.87019+28.156+8.87019+28.156C8.94039+28.0936+8.96139+27.9886+8.91459+27.9016C8.85939+27.8008+8.73399+27.7642+8.63259+27.8182L8.62239+27.8242C8.62239+27.8242+8.59299+27.8404+8.53539+27.871C8.47839+27.9028+8.39319+27.9466+8.27979+27.994C8.05959+28.0876+7.70619+28.2112+7.32819+28.1488C6.95739+28.0912+6.60459+27.805+6.46779+27.31C6.39939+27.0688+6.39159+26.788+6.45759+26.524C6.52539+26.2612+6.65799+26.0194+6.85599+25.8412C7.05339+25.6612+7.31319+25.537+7.63059+25.474C7.71039+25.4566+7.79559+25.4464+7.85919+25.441L8.02479+25.4248L8.03619+25.4236C8.04519+25.4224+8.00199+25.4302+8.02419+25.4266L8.04159+25.426L8.07819+25.4248L8.15019+25.4224C8.34039+25.4176+8.52519+25.4266+8.69439+25.4548C9.03579+25.513+9.29259+25.63+9.50439+25.8256C9.71799+26.0182+9.91719+26.311+10.0978+26.695C10.2784+27.0772+10.4374+27.5326+10.5904+28.0228C10.75+28.5364+10.9114+29.0566+11.0746+29.581C11.4136+30.6682+11.8168+31.843+12.4468+32.9962C13.069+34.1494+13.9054+35.2972+15.0118+36.2002L15.406+36.5104C15.568+36.6304+15.7066+36.721+15.8614+36.8212C16.168+37.012+16.4866+37.1848+16.816+37.3318C17.4748+37.6222+18.1684+37.8226+18.85+37.9126C19.2532+37.9708+19.6474+37.9906+20.0338+37.9858C20.0374+37.9918+20.0404+37.9978+20.0404+37.9978C20.0404+37.9978+21.655+37.9804+22.3348+38.6974C22.5388+38.9128+22.7608+39.1696+22.6588+39.76C22.534+40.4806+22.1398+40.816+21.0988+40.7854C21.0982+40.7854+21.0976+40.7854+21.0976+40.7854C20.2372+40.7182+19.3456+40.6912+18.4672+40.7782C17.59+40.861+16.729+41.0776+15.9772+41.4178C15.598+41.593+15.2662+41.7676+14.9062+42.0304C14.7172+42.1678+14.5684+42.3124+14.4202+42.4756C14.2798+42.6448+14.1532+42.8224+14.059+43.0192C13.8622+43.4074+13.7914+43.843+13.8376+44.2348C13.8844+44.6284+14.0398+44.9782+14.2576+45.2458C14.476+45.5128+14.7526+45.7036+15.0352+45.7942C15.3178+45.8878+15.5914+45.8914+15.8176+45.8524C16.2724+45.7618+16.5454+45.5566+16.7098+45.4174C16.7974+45.3508+16.849+45.2872+16.891+45.2506C16.9294+45.2122+16.9504+45.1918+16.9504+45.1918C17.0164+45.127+17.0326+45.022+16.9828+44.938C16.924+44.8402+16.7974+44.8084+16.6984+44.8672L16.6804+44.878C16.6804+44.878+16.6588+44.8906+16.6186+44.9152C16.5772+44.9362+16.5214+44.98+16.4398+45.0148C16.285+45.0952+16.0378+45.1906+15.7594+45.1792C15.6214+45.1696+15.4804+45.1306+15.355+45.0502C15.2284+44.9728+15.1222+44.8474+15.046+44.6986C14.896+44.3926+14.923+43.9792+15.1846+43.6828C15.3052+43.5322+15.4972+43.3924+15.7048+43.2946C15.9148+43.1908+16.2334+43.093+16.5316+43.0294C17.1412+42.895+17.7994+42.8794+18.4924+42.9466C19.1854+43.0126+19.912+43.177+20.6776+43.3738C21.0622+43.4746+21.4546+43.5838+21.865+43.6918C21.9238+43.7134+21.9832+43.7332+22.0462+43.7506C24.4102+44.3998+27.3238+46.9426+25.2676+49.786C25.1974+49.8664+25.1254+49.9444+25.0504+50.0182C24.5566+50.515+23.9464+50.8804+23.2414+51.1126C23.0674+51.1732+22.8856+51.2182+22.7044+51.2668C22.6108+51.2866+22.519+51.3058+22.4272+51.3262C22.3996+51.3436+22.2046+51.3622+22.1818+51.3688C21.9022+51.4102+21.5602+51.3922+21.2536+51.325C20.6344+51.1858+20.0578+50.8624+19.7572+50.4424C19.606+50.2342+19.5286+50.0074+19.5202+49.7716C19.5208+49.7452+19.5154+49.705+19.5208+49.6888C19.5274+49.6516+19.5346+49.606+19.5406+49.5874C19.5502+49.543+19.5688+49.4782+19.5898+49.4248C19.6306+49.312+19.6864+49.2058+19.7512+49.1074C20.0098+48.7108+20.3938+48.4804+20.704+48.4426C21.0184+48.4006+21.265+48.5212+21.412+48.6316C21.4876+48.6862+21.5422+48.736+21.5764+48.7708C21.6124+48.8062+21.6304+48.8248+21.6304+48.8248L21.643+48.8374C21.7156+48.9112+21.8332+48.919+21.9172+48.8524C22.006+48.7816+22.021+48.6514+21.9502+48.5626C21.9502+48.5626+21.9304+48.5368+21.8914+48.4882C21.8524+48.4396+21.7918+48.3676+21.6988+48.2836C21.6082+48.1984+21.4828+48.1+21.3094+48.0202C21.1384+47.938+20.9158+47.8828+20.6668+47.8864C20.1658+47.8978+19.6018+48.1708+19.1812+48.6808C19.0762+48.8092+18.9796+48.9526+18.898+49.1152C18.8566+49.1968+18.8218+49.2766+18.787+49.3786C18.7672+49.4344+18.7594+49.4644+18.748+49.5028L18.7072+49.6528C18.6034+50.0434+18.6406+50.5048+18.802+50.9182C18.9622+51.334+19.2304+51.7054+19.5544+52.0246C19.879+52.345+20.2684+52.6096+20.7046+52.8178C21.1468+53.0236+21.6172+53.1736+22.1758+53.2288C22.3618+53.2414+22.3768+53.2516+22.5604+53.251C22.6792+53.2528+22.7992+53.2546+22.9198+53.2564C23.1616+53.2504+23.4076+53.2426+23.659+53.2126C24.1606+53.1592+24.6814+53.0536+25.1986+52.8766C25.7158+52.6996+26.2252+52.4458+26.6968+52.1344C27.6454+51.5062+28.4038+50.6584+29.0068+49.8052C29.3116+49.3774+29.5816+48.9436+29.8396+48.517C29.9902+48.2686+30.1384+48.022+30.2878+47.7742C30.9724+46.8988+32.1256+46.123+33.4504+45.9328C34.9726+45.976+36.3292+46.8286+37.0984+47.806C37.2478+48.0532+37.3972+48.2998+37.5484+48.5476C37.8076+48.9742+38.0794+49.4074+38.3854+49.834C38.9902+50.6848+39.7516+51.5308+40.7014+52.1554C41.1742+52.4662+41.6842+52.7182+42.202+52.8934C42.7198+53.0692+43.2406+53.1724+43.7428+53.2252C43.9942+53.2546+44.2408+53.2612+44.482+53.266C44.602+53.2642+44.722+53.2618+44.8414+53.26C45.0244+53.26+45.04+53.2492+45.226+53.2366C45.7846+53.1796+46.2544+53.0284+46.6954+52.8214C47.131+52.6114+47.5198+52.3462+47.8438+52.0252C48.1666+51.7054+48.4342+51.3334+48.5926+50.9164C48.7528+50.503+48.7888+50.041+48.6832+49.651L48.6424+49.501C48.6298+49.4626+48.6226+49.432+48.6028+49.3768C48.5674+49.2736+48.5332+49.195+48.4912+49.1128C48.409+48.9514+48.3118+48.808+48.2062+48.6802C47.785+48.1708+47.2204+47.8996+46.7188+47.8906C46.4692+47.887+46.2466+47.9428+46.0762+48.0262C45.9034+48.1072+45.778+48.2062+45.6874+48.2902C45.595+48.3748+45.5338+48.4468+45.496+48.496C45.4576+48.5446+45.4372+48.5704+45.4372+48.5704C45.373+48.652+45.3778+48.7696+45.4534+48.8446C45.5332+48.925+45.6646+48.925+45.745+48.8446L45.7576+48.832C45.7576+48.832+45.775+48.8134+45.811+48.778C45.8458+48.742+45.8998+48.6922+45.9748+48.6382C46.1218+48.5266+46.3678+48.406+46.6822+48.4474C46.993+48.4846+47.3776+48.7132+47.6374+49.1098C47.701+49.2076+47.7574+49.3144+47.8+49.426C47.821+49.4806+47.8396+49.5448+47.8498+49.5892C47.8552+49.6072+47.8624+49.6528+47.8702+49.69C47.875+49.7062+47.8702+49.7464+47.8708+49.7728C47.8618+50.0098+47.7856+50.236+47.635+50.4442C47.3356+50.8648+46.7602+51.19+46.1416+51.3316C45.835+51.4+45.493+51.4192+45.214+51.3784C45.1906+51.3712+44.9962+51.3538+44.968+51.3364C44.8768+51.3172+44.7838+51.2974+44.6914+51.2776C44.5096+51.2302+44.3278+51.1858+44.1532+51.1252C43.4476+50.8954+42.8374+50.5318+42.3412+50.0368C42.2674+49.9636+42.1954+49.8862+42.1252+49.807C40.0576+46.9696+42.964+44.4172+45.3274+43.7608C45.3898+43.7434+45.4492+43.723+45.5086+43.7008C45.919+43.591+46.3102+43.4812+46.6948+43.3798C47.4592+43.1806+48.1852+43.015+48.8782+42.9454C49.5712+42.8758+50.2294+42.8902+50.8396+43.0228C51.1384+43.0852+51.457+43.1824+51.667+43.2856C51.8752+43.3822+52.0678+43.5214+52.189+43.6714C52.4518+43.9678+52.4794+44.3824+52.33+44.6872C52.2544+44.8366+52.1482+44.9626+52.0222+45.0406C51.8974+45.121+51.7564+45.1606+51.6184+45.1702C51.3394+45.1828+51.0928+45.0874+50.9374+45.0076C50.8552+44.9728+50.8+44.929+50.7586+44.908C50.7178+44.884+50.6968+44.8714+50.6968+44.8714L50.6782+44.86C50.5978+44.812+50.4928+44.8228+50.4244+44.893C50.344+44.9752+50.3452+45.1054+50.4274+45.1858C50.4274+45.1858+50.4478+45.2056+50.4874+45.244C50.5288+45.2812+50.5804+45.3442+50.6692+45.4108C50.8336+45.5482+51.1066+45.7528+51.5614+45.8428C51.7882+45.8806+52.0618+45.8776+52.3444+45.7822C52.627+45.6904+52.9024+45.499+53.1202+45.2314C53.3374+44.9638+53.4916+44.6128+53.5372+44.2192C53.5822+43.8268+53.5102+43.3912+53.3122+43.0042C53.218+42.808+53.0908+42.6304+52.9498+42.4624C52.8016+42.2992+52.6522+42.1552+52.4626+42.0178C52.1014+41.7556+51.769+41.5822+51.3898+41.4082C50.6368+41.0704+49.7752+40.855+48.898+40.7758C48.0184+40.69+47.1268+40.72+46.2658+40.7902C45.226+40.8238+44.83+40.4896+44.7034+39.7696C44.5996+39.1792+44.8204+38.9212+45.0244+38.7052C45.7012+37.9876+47.3164+37.9984+47.3164+37.9984C47.3164+37.9984+47.32+37.993+47.323+37.9876C47.7088+37.9906+48.103+37.9696+48.5062+37.9108C49.1878+37.819+49.8802+37.6168+50.539+37.3234C50.8672+37.1758+51.1852+37.0018+51.4912+36.811C51.646+36.7096+51.7846+36.619+51.946+36.4984L52.339+36.187C53.4436+35.2804+54.2764+34.1302+54.895+32.9752C55.5208+31.819+55.921+30.6436+56.2576+29.5558C56.419+29.0308+56.5786+28.5106+56.737+27.9958C56.8882+27.5056+57.0466+27.049+57.226+26.6668C57.4054+26.2816+57.604+25.9894+57.8164+25.7956C58.0276+25.5994+58.2838+25.4824+58.6246+25.4224C58.7944+25.3942+58.9792+25.3846+59.17+25.3888L59.2408+25.3912L59.2774+25.3924L59.2948+25.3924C59.3176+25.396+59.275+25.3876+59.2834+25.3894L59.2948+25.39L59.4598+25.4056C59.5234+25.4104+59.6098+25.4206+59.6896+25.4374C60.0064+25.4998+60.2668+25.6234+60.4642+25.8016C60.6628+25.9798+60.7972+26.2216+60.8656+26.4838C60.9316+26.7472+60.9256+27.028+60.8572+27.2692C60.7216+27.7648+60.37+28.0534+59.9992+28.1116C59.6218+28.1746+59.2678+28.0522+59.0476+27.9592C58.9348+27.9124+58.849+27.8686+58.7914+27.8374C58.7338+27.8062+58.7038+27.7906+58.7038+27.7906L58.6936+27.7846C58.6102+27.7396+58.5046+27.7564+58.4392+27.8302C58.3636+27.916+58.372+28.0474+58.4578+28.123C58.4578+28.123+58.486+28.1476+58.5406+28.1962C58.5946+28.2436+58.678+28.3138+58.795+28.3984C58.9114+28.4836+59.0638+28.582+59.2636+28.6726C59.464+28.7602+59.7142+28.8484+60.025+28.8634C60.331+28.8802+60.7024+28.8154+61.042+28.6138C61.3816+28.4146+61.6792+28.096+61.8802+27.7042C62.0836+27.313+62.1988+26.8462+62.1838+26.341C62.1754+25.8406+62.0116+25.288+61.663+24.814" opacity="1" fill="#ed9700"/>
<g opacity="1">
<path d="M81.8575+39.298C81.1455+39.298+80.5375+39.208+80.0335+39.028C79.5295+38.848+79.1215+38.672+78.8095+38.5C78.4975+38.328+78.2775+38.242+78.1495+38.242C78.0215+38.242+77.9175+38.294+77.8375+38.398C77.7575+38.502+77.6835+38.626+77.6155+38.77C77.5475+38.914+77.4735+39.04+77.3935+39.148C77.3135+39.256+77.2055+39.31+77.0695+39.31C76.9415+39.31+76.8375+39.27+76.7575+39.19C76.6775+39.11+76.6175+38.982+76.5775+38.806L75.6895+34.942C75.6575+34.806+75.6715+34.686+75.7315+34.582C75.7915+34.478+75.8895+34.406+76.0255+34.366C76.1695+34.31+76.2975+34.312+76.4095+34.372C76.5215+34.432+76.6175+34.542+76.6975+34.702C77.1295+35.59+77.6135+36.3+78.1495+36.832C78.6855+37.364+79.2555+37.75+79.8595+37.99C80.4635+38.23+81.0815+38.35+81.7135+38.35C82.6095+38.35+83.3095+38.108+83.8135+37.624C84.3175+37.14+84.5735+36.498+84.5815+35.698C84.5895+35.202+84.4795+34.744+84.2515+34.324C84.0235+33.904+83.5995+33.498+82.9795+33.106C82.3595+32.714+81.4575+32.318+80.2735+31.918C79.0735+31.502+78.1135+31.038+77.3935+30.526C76.6735+30.014+76.1495+29.426+75.8215+28.762C75.4935+28.098+75.3295+27.342+75.3295+26.494C75.3295+25.558+75.5495+24.738+75.9895+24.034C76.4295+23.33+77.0455+22.784+77.8375+22.396C78.6295+22.008+79.5415+21.814+80.5735+21.814C81.3335+21.814+81.9515+21.896+82.4275+22.06C82.9035+22.224+83.2875+22.392+83.5795+22.564C83.8715+22.736+84.1055+22.822+84.2815+22.822C84.4495+22.822+84.5675+22.738+84.6355+22.57C84.7035+22.402+84.7755+22.232+84.8515+22.06C84.9275+21.888+85.0655+21.802+85.2655+21.802C85.3935+21.802+85.4995+21.844+85.5835+21.928C85.6675+22.012+85.7415+22.162+85.8055+22.378L86.9815+26.35C87.0295+26.51+87.0255+26.654+86.9695+26.782C86.9135+26.91+86.8135+26.994+86.6695+27.034C86.5255+27.082+86.3975+27.078+86.2855+27.022C86.1735+26.966+86.0775+26.862+85.9975+26.71C85.5175+25.726+84.9995+24.946+84.4435+24.37C83.8875+23.794+83.3035+23.38+82.6915+23.128C82.0795+22.876+81.4495+22.75+80.8015+22.75C79.8895+22.75+79.1575+23.014+78.6055+23.542C78.0535+24.07+77.7775+24.77+77.7775+25.642C77.7775+26.146+77.8935+26.62+78.1255+27.064C78.3575+27.508+78.7755+27.934+79.3795+28.342C79.9835+28.75+80.8455+29.162+81.9655+29.578C83.2135+30.034+84.2015+30.518+84.9295+31.03C85.6575+31.542+86.1775+32.108+86.4895+32.728C86.8015+33.348+86.9535+34.05+86.9455+34.834C86.9455+35.65+86.7475+36.396+86.3515+37.072C85.9555+37.748+85.3795+38.288+84.6235+38.692C83.8675+39.096+82.9455+39.298+81.8575+39.298Z" opacity="1" fill="#ed9700"/>
<path d="M93.1883+28.138L93.1883+37.33C93.1883+37.538+93.2283+37.696+93.3083+37.804C93.3883+37.912+93.5043+37.986+93.6563+38.026L94.1963+38.146C94.4363+38.226+94.5563+38.354+94.5563+38.53C94.5563+38.794+94.3803+38.926+94.0283+38.926L89.7443+38.926C89.5763+38.926+89.4503+38.892+89.3663+38.824C89.2823+38.756+89.2403+38.666+89.2403+38.554C89.2403+38.458+89.2723+38.376+89.3363+38.308C89.4003+38.24+89.4963+38.19+89.6243+38.158L90.2123+38.026C90.3643+37.978+90.4803+37.904+90.5603+37.804C90.6403+37.704+90.6803+37.55+90.6803+37.342L90.6803+29.806C90.6803+29.63+90.6523+29.504+90.5963+29.428C90.5403+29.352+90.4443+29.306+90.3083+29.29L89.4803+29.254C89.3523+29.238+89.2603+29.202+89.2043+29.146C89.1483+29.09+89.1203+29.018+89.1203+28.93C89.1203+28.834+89.1523+28.754+89.2163+28.69C89.2803+28.626+89.3963+28.562+89.5643+28.498L91.6163+27.79C91.8563+27.702+92.0503+27.64+92.1983+27.604C92.3463+27.568+92.4803+27.55+92.6003+27.55C92.8003+27.55+92.9483+27.602+93.0443+27.706C93.1403+27.81+93.1883+27.954+93.1883+28.138ZM92.8523+30.67L92.4083+30.214L92.9243+29.77C93.8603+28.938+94.6643+28.344+95.3363+27.988C96.0083+27.632+96.6603+27.454+97.2923+27.454C98.2363+27.454+98.9703+27.77+99.4943+28.402C100.018+29.034+100.34+29.886+100.46+30.958L101.204+37.282C101.228+37.506+101.28+37.676+101.36+37.792C101.44+37.908+101.56+37.99+101.72+38.038L102.236+38.158C102.364+38.19+102.46+38.24+102.524+38.308C102.588+38.376+102.62+38.458+102.62+38.554C102.62+38.666+102.58+38.756+102.5+38.824C102.42+38.892+102.292+38.926+102.116+38.926L97.7843+38.926C97.4323+38.926+97.2563+38.794+97.2563+38.53C97.2563+38.354+97.3763+38.226+97.6163+38.146L98.1923+38.026C98.3603+37.986+98.4883+37.908+98.5763+37.792C98.6643+37.676+98.6963+37.506+98.6723+37.282L97.9643+31.342C97.8683+30.542+97.6623+29.944+97.3463+29.548C97.0303+29.152+96.5723+28.954+95.9723+28.954C95.5883+28.954+95.1843+29.06+94.7603+29.272C94.3363+29.484+93.8723+29.802+93.3683+30.226L92.8523+30.67Z" opacity="1" fill="#ed9700"/>
<path d="M114.26+31.954C114.26+32.298+114.158+32.564+113.954+32.752C113.75+32.94+113.448+33.034+113.048+33.034L105.392+33.034L105.392+32.302L111.128+32.302C111.512+32.302+111.704+32.13+111.704+31.786C111.704+30.706+111.474+29.864+111.014+29.26C110.554+28.656+109.94+28.354+109.172+28.354C108.564+28.354+108.03+28.528+107.57+28.876C107.11+29.224+106.752+29.716+106.496+30.352C106.24+30.988+106.112+31.738+106.112+32.602C106.112+34.202+106.49+35.414+107.246+36.238C108.002+37.062+108.996+37.474+110.228+37.474C111.02+37.474+111.708+37.292+112.292+36.928C112.876+36.564+113.284+36.082+113.516+35.482C113.612+35.354+113.692+35.266+113.756+35.218C113.82+35.17+113.888+35.146+113.96+35.146C114.072+35.146+114.15+35.19+114.194+35.278C114.238+35.366+114.26+35.474+114.26+35.602C114.204+36.258+113.964+36.86+113.54+37.408C113.116+37.956+112.55+38.392+111.842+38.716C111.134+39.04+110.328+39.202+109.424+39.202C108.312+39.202+107.332+38.968+106.484+38.5C105.636+38.032+104.974+37.372+104.498+36.52C104.022+35.668+103.784+34.67+103.784+33.526C103.784+32.358+104.016+31.318+104.48+30.406C104.944+29.494+105.602+28.774+106.454+28.246C107.306+27.718+108.32+27.454+109.496+27.454C110.472+27.454+111.316+27.646+112.028+28.03C112.74+28.414+113.29+28.942+113.678+29.614C114.066+30.286+114.26+31.066+114.26+31.954Z" opacity="1" fill="#ed9700"/>
<path d="M123.475+37.474L123.475+37.246L123.319+37.174L123.319+30.298C123.319+29.61+123.147+29.08+122.803+28.708C122.459+28.336+121.971+28.15+121.339+28.15C120.731+28.15+120.275+28.278+119.971+28.534C119.667+28.79+119.515+29.094+119.515+29.446L119.515+30.37C119.515+30.754+119.391+31.05+119.143+31.258C118.895+31.466+118.551+31.57+118.111+31.57C117.727+31.57+117.433+31.47+117.229+31.27C117.025+31.07+116.923+30.802+116.923+30.466C116.923+29.978+117.113+29.504+117.493+29.044C117.873+28.584+118.427+28.206+119.155+27.91C119.883+27.614+120.763+27.466+121.795+27.466C123.147+27.466+124.153+27.756+124.813+28.336C125.473+28.916+125.803+29.698+125.803+30.682L125.803+37.162C125.803+37.426+125.853+37.618+125.953+37.738C126.053+37.858+126.191+37.918+126.367+37.918C126.559+37.918+126.701+37.874+126.793+37.786C126.885+37.698+126.959+37.606+127.015+37.51C127.055+37.462+127.095+37.42+127.135+37.384C127.175+37.348+127.227+37.33+127.291+37.33C127.363+37.33+127.419+37.358+127.459+37.414C127.499+37.47+127.519+37.55+127.519+37.654C127.519+37.878+127.441+38.108+127.285+38.344C127.129+38.58+126.901+38.782+126.601+38.95C126.301+39.118+125.927+39.202+125.479+39.202C124.847+39.202+124.355+39.054+124.003+38.758C123.651+38.462+123.475+38.034+123.475+37.474ZM116.383+36.442C116.383+35.498+116.801+34.726+117.637+34.126C118.473+33.526+119.643+33.226+121.147+33.226C121.691+33.226+122.187+33.276+122.635+33.376C123.083+33.476+123.479+33.606+123.823+33.766L123.643+34.39C123.315+34.246+122.977+34.13+122.629+34.042C122.281+33.954+121.899+33.91+121.483+33.91C120.691+33.91+120.075+34.1+119.635+34.48C119.195+34.86+118.975+35.378+118.975+36.034C118.975+36.682+119.157+37.18+119.521+37.528C119.885+37.876+120.351+38.05+120.919+38.05C121.447+38.05+121.955+37.93+122.443+37.69C122.931+37.45+123.351+37.106+123.703+36.658L123.943+37.198C123.479+37.838+122.877+38.332+122.137+38.68C121.397+39.028+120.615+39.202+119.791+39.202C118.783+39.202+117.963+38.952+117.331+38.452C116.699+37.952+116.383+37.282+116.383+36.442Z" opacity="1" fill="#ed9700"/>
<path d="M129.539+38.926C129.371+38.926+129.255+38.892+129.191+38.824C129.127+38.756+129.095+38.666+129.095+38.554C129.095+38.458+129.127+38.376+129.191+38.308C129.255+38.24+129.355+38.186+129.491+38.146L130.067+38.026C130.219+37.978+130.335+37.904+130.415+37.804C130.495+37.704+130.535+37.55+130.535+37.342L130.535+23.482C130.535+23.306+130.507+23.18+130.451+23.104C130.395+23.028+130.299+22.982+130.163+22.966L129.335+22.942C129.207+22.918+129.115+22.878+129.059+22.822C129.003+22.766+128.975+22.694+128.975+22.606C128.975+22.51+129.007+22.43+129.071+22.366C129.135+22.302+129.251+22.242+129.419+22.186L131.471+21.466C131.711+21.386+131.905+21.326+132.053+21.286C132.201+21.246+132.335+21.226+132.455+21.226C132.655+21.226+132.803+21.28+132.899+21.388C132.995+21.496+133.043+21.642+133.043+21.826L133.043+37.33C133.043+37.538+133.083+37.696+133.163+37.804C133.243+37.912+133.359+37.986+133.511+38.026L134.051+38.146C134.291+38.226+134.411+38.354+134.411+38.53C134.411+38.794+134.235+38.926+133.883+38.926L129.539+38.926ZM132.263+33.79L137.387+29.554C137.659+29.322+137.781+29.116+137.753+28.936C137.725+28.756+137.551+28.63+137.231+28.558L136.751+28.462C136.607+28.43+136.509+28.384+136.457+28.324C136.405+28.264+136.379+28.182+136.379+28.078C136.379+27.958+136.423+27.866+136.511+27.802C136.599+27.738+136.723+27.706+136.883+27.706L140.819+27.706C140.979+27.706+141.103+27.738+141.191+27.802C141.279+27.866+141.323+27.954+141.323+28.066C141.323+28.186+141.285+28.282+141.209+28.354C141.133+28.426+140.975+28.49+140.735+28.546C140.335+28.618+139.987+28.734+139.691+28.894C139.395+29.054+139.019+29.318+138.563+29.686L132.503+34.63L132.263+33.79ZM136.007+31.21L140.219+37.222C140.435+37.518+140.623+37.722+140.783+37.834C140.943+37.946+141.183+38.038+141.503+38.11C141.655+38.166+141.767+38.232+141.839+38.308C141.911+38.384+141.947+38.47+141.947+38.566C141.947+38.678+141.901+38.766+141.809+38.83C141.717+38.894+141.595+38.926+141.443+38.926L136.931+38.926C136.787+38.926+136.673+38.892+136.589+38.824C136.505+38.756+136.463+38.666+136.463+38.554C136.463+38.466+136.489+38.392+136.541+38.332C136.593+38.272+136.683+38.222+136.811+38.182L137.279+38.098C137.543+38.042+137.685+37.948+137.705+37.816C137.725+37.684+137.619+37.454+137.387+37.126L134.279+32.674L136.007+31.21Z" opacity="1" fill="#ed9700"/>
<path d="M149.763+37.462L148.479+40.066L143.883+29.458C143.739+29.122+143.591+28.894+143.439+28.774C143.287+28.654+143.031+28.558+142.671+28.486C142.527+28.446+142.427+28.394+142.371+28.33C142.315+28.266+142.287+28.182+142.287+28.078C142.287+27.958+142.331+27.866+142.419+27.802C142.507+27.738+142.631+27.706+142.791+27.706L147.627+27.706C147.779+27.706+147.901+27.738+147.993+27.802C148.085+27.866+148.131+27.958+148.131+28.078C148.131+28.182+148.099+28.266+148.035+28.33C147.971+28.394+147.859+28.442+147.699+28.474L147.159+28.558C146.791+28.63+146.575+28.754+146.511+28.93C146.447+29.106+146.503+29.418+146.679+29.866L149.763+37.462ZM147.699+41.314L148.695+38.854L149.007+38.206L152.283+29.986C152.467+29.53+152.525+29.202+152.457+29.002C152.389+28.802+152.163+28.666+151.779+28.594L151.239+28.498C151.079+28.466+150.965+28.414+150.897+28.342C150.829+28.27+150.795+28.182+150.795+28.078C150.795+27.958+150.841+27.866+150.933+27.802C151.025+27.738+151.147+27.706+151.299+27.706L154.707+27.706C154.859+27.706+154.981+27.74+155.073+27.808C155.165+27.876+155.211+27.97+155.211+28.09C155.211+28.178+155.181+28.254+155.121+28.318C155.061+28.382+154.951+28.438+154.791+28.486C154.407+28.582+154.123+28.712+153.939+28.876C153.755+29.04+153.579+29.33+153.411+29.746L148.803+41.206C148.435+42.126+148.081+42.84+147.741+43.348C147.401+43.856+147.037+44.208+146.649+44.404C146.261+44.6+145.799+44.698+145.263+44.698C144.463+44.698+143.833+44.486+143.373+44.062C142.913+43.638+142.683+43.126+142.683+42.526C142.683+42.094+142.785+41.758+142.989+41.518C143.193+41.278+143.463+41.158+143.799+41.158C144.119+41.158+144.369+41.26+144.549+41.464C144.729+41.668+144.863+41.946+144.951+42.298L145.059+42.706C145.099+42.994+145.191+43.208+145.335+43.348C145.479+43.488+145.647+43.558+145.839+43.558C146.047+43.558+146.245+43.496+146.433+43.372C146.621+43.248+146.819+43.024+147.027+42.7C147.235+42.376+147.459+41.914+147.699+41.314Z" opacity="1" fill="#ed9700"/>
<path d="M170.061+21.742C171.325+21.742+172.475+21.96+173.511+22.396C174.547+22.832+175.439+23.448+176.187+24.244C176.935+25.04+177.509+25.978+177.909+27.058C178.309+28.138+178.509+29.33+178.509+30.634C178.509+31.898+178.309+33.062+177.909+34.126C177.509+35.19+176.937+36.112+176.193+36.892C175.449+37.672+174.559+38.276+173.523+38.704C172.487+39.132+171.341+39.346+170.085+39.346C168.837+39.346+167.697+39.128+166.665+38.692C165.633+38.256+164.745+37.64+164.001+36.844C163.257+36.048+162.683+35.108+162.279+34.024C161.875+32.94+161.673+31.746+161.673+30.442C161.673+29.17+161.873+28.004+162.273+26.944C162.673+25.884+163.245+24.964+163.989+24.184C164.733+23.404+165.619+22.802+166.647+22.378C167.675+21.954+168.813+21.742+170.061+21.742ZM175.665+32.194C175.665+31.138+175.559+30.136+175.347+29.188C175.135+28.24+174.839+27.374+174.459+26.59C174.079+25.806+173.631+25.126+173.115+24.55C172.599+23.974+172.029+23.53+171.405+23.218C170.781+22.906+170.121+22.75+169.425+22.75C168.457+22.75+167.607+22.994+166.875+23.482C166.143+23.97+165.575+24.672+165.171+25.588C164.767+26.504+164.565+27.602+164.565+28.882C164.565+29.946+164.667+30.954+164.871+31.906C165.075+32.858+165.367+33.728+165.747+34.516C166.127+35.304+166.575+35.986+167.091+36.562C167.607+37.138+168.177+37.582+168.801+37.894C169.425+38.206+170.081+38.362+170.769+38.362C171.745+38.362+172.601+38.116+173.337+37.624C174.073+37.132+174.645+36.426+175.053+35.506C175.461+34.586+175.665+33.482+175.665+32.194Z" opacity="1" fill="#ed9700"/>
<path d="M190.808+30.55C190.808+30.926+190.686+31.24+190.442+31.492C190.198+31.744+189.872+31.87+189.464+31.87C189.064+31.87+188.756+31.756+188.54+31.528C188.324+31.3+188.216+30.994+188.216+30.61L188.216+30.226C188.216+29.666+188.022+29.214+187.634+28.87C187.246+28.526+186.712+28.354+186.032+28.354C185.424+28.354+184.882+28.528+184.406+28.876C183.93+29.224+183.556+29.716+183.284+30.352C183.012+30.988+182.876+31.738+182.876+32.602C182.876+33.642+183.052+34.524+183.404+35.248C183.756+35.972+184.242+36.522+184.862+36.898C185.482+37.274+186.188+37.462+186.98+37.462C187.74+37.462+188.398+37.284+188.954+36.928C189.51+36.572+189.908+36.102+190.148+35.518C190.244+35.39+190.324+35.302+190.388+35.254C190.452+35.206+190.524+35.186+190.604+35.194C190.708+35.194+190.782+35.236+190.826+35.32C190.87+35.404+190.892+35.506+190.892+35.626C190.828+36.29+190.588+36.892+190.172+37.432C189.756+37.972+189.206+38.402+188.522+38.722C187.838+39.042+187.056+39.202+186.176+39.202C185.072+39.202+184.096+38.968+183.248+38.5C182.4+38.032+181.738+37.374+181.262+36.526C180.786+35.678+180.548+34.678+180.548+33.526C180.548+32.382+180.79+31.354+181.274+30.442C181.758+29.53+182.438+28.804+183.314+28.264C184.19+27.724+185.216+27.454+186.392+27.454C187.304+27.454+188.09+27.596+188.75+27.88C189.41+28.164+189.918+28.542+190.274+29.014C190.63+29.486+190.808+29.998+190.808+30.55Z" opacity="1" fill="#ed9700"/>
<path d="M193.313+28.654L192.653+28.486C192.461+28.438+192.329+28.378+192.257+28.306C192.185+28.234+192.149+28.154+192.149+28.066C192.149+27.946+192.191+27.856+192.275+27.796C192.359+27.736+192.469+27.706+192.605+27.706L193.397+27.706C193.597+27.706+193.759+27.672+193.883+27.604C194.007+27.536+194.121+27.418+194.225+27.25L195.233+25.474C195.345+25.298+195.457+25.17+195.569+25.09C195.681+25.01+195.797+24.97+195.917+24.97C196.053+24.97+196.157+25.01+196.229+25.09C196.301+25.17+196.337+25.286+196.337+25.438L196.337+35.998C196.337+36.55+196.451+36.972+196.679+37.264C196.907+37.556+197.225+37.702+197.633+37.702C197.921+37.702+198.145+37.654+198.305+37.558C198.465+37.462+198.593+37.35+198.689+37.222C198.785+37.094+198.875+36.978+198.959+36.874C199.043+36.77+199.145+36.71+199.265+36.694C199.361+36.694+199.435+36.724+199.487+36.784C199.539+36.844+199.565+36.942+199.565+37.078C199.557+37.43+199.431+37.762+199.187+38.074C198.943+38.386+198.607+38.64+198.179+38.836C197.751+39.032+197.261+39.13+196.709+39.13C195.829+39.13+195.131+38.904+194.615+38.452C194.099+38+193.841+37.31+193.841+36.382L193.841+29.314C193.841+29.13+193.801+28.988+193.721+28.888C193.641+28.788+193.505+28.71+193.313+28.654ZM195.233+28.606L195.233+27.706L198.989+27.706C199.149+27.706+199.269+27.734+199.349+27.79C199.429+27.846+199.469+27.934+199.469+28.054C199.469+28.214+199.389+28.346+199.229+28.45C199.069+28.554+198.817+28.606+198.473+28.606L195.233+28.606Z" opacity="1" fill="#ed9700"/>
<path d="M207.21+27.466C208.37+27.466+209.396+27.714+210.288+28.21C211.18+28.706+211.878+29.398+212.382+30.286C212.886+31.174+213.138+32.194+213.138+33.346C213.138+34.474+212.882+35.478+212.37+36.358C211.858+37.238+211.152+37.932+210.252+38.44C209.352+38.948+208.31+39.202+207.126+39.202C205.958+39.202+204.93+38.952+204.042+38.452C203.154+37.952+202.458+37.258+201.954+36.37C201.45+35.482+201.198+34.466+201.198+33.322C201.198+32.186+201.452+31.178+201.96+30.298C202.468+29.418+203.174+28.726+204.078+28.222C204.982+27.718+206.026+27.466+207.21+27.466ZM208.038+38.218C208.694+38.13+209.232+37.86+209.652+37.408C210.072+36.956+210.352+36.346+210.492+35.578C210.632+34.81+210.618+33.906+210.45+32.866C210.282+31.818+210+30.948+209.604+30.256C209.208+29.564+208.728+29.064+208.164+28.756C207.6+28.448+206.978+28.342+206.298+28.438C205.634+28.534+205.094+28.808+204.678+29.26C204.262+29.712+203.984+30.32+203.844+31.084C203.704+31.848+203.718+32.75+203.886+33.79C204.054+34.838+204.336+35.708+204.732+36.4C205.128+37.092+205.608+37.592+206.172+37.9C206.736+38.208+207.358+38.314+208.038+38.218Z" opacity="1" fill="#ed9700"/>
<path d="M218.793+28.126L218.793+29.614L218.877+29.818L218.877+42.922C218.877+43.138+218.917+43.3+218.997+43.408C219.077+43.516+219.193+43.586+219.345+43.618L220.173+43.738C220.309+43.77+220.411+43.82+220.479+43.888C220.547+43.956+220.581+44.042+220.581+44.146C220.581+44.258+220.539+44.348+220.455+44.416C220.371+44.484+220.237+44.518+220.053+44.518L215.457+44.518C215.281+44.518+215.151+44.484+215.067+44.416C214.983+44.348+214.941+44.258+214.941+44.146C214.941+44.05+214.973+43.968+215.037+43.9C215.101+43.832+215.201+43.782+215.337+43.75L215.913+43.618C216.065+43.578+216.181+43.506+216.261+43.402C216.341+43.298+216.381+43.142+216.381+42.934L216.381+29.794C216.381+29.618+216.351+29.492+216.291+29.416C216.231+29.34+216.133+29.294+215.997+29.278L215.181+29.254C215.053+29.23+214.961+29.19+214.905+29.134C214.849+29.078+214.821+29.006+214.821+28.918C214.821+28.822+214.853+28.744+214.917+28.684C214.981+28.624+215.097+28.562+215.265+28.498L217.221+27.778C217.453+27.69+217.645+27.628+217.797+27.592C217.949+27.556+218.081+27.538+218.193+27.538C218.393+27.538+218.543+27.59+218.643+27.694C218.743+27.798+218.793+27.942+218.793+28.126ZM218.313+30.946L217.941+30.346C218.557+29.434+219.265+28.724+220.065+28.216C220.865+27.708+221.741+27.454+222.693+27.454C223.629+27.454+224.465+27.694+225.201+28.174C225.937+28.654+226.515+29.316+226.935+30.16C227.355+31.004+227.565+31.974+227.565+33.07C227.565+34.326+227.319+35.414+226.827+36.334C226.335+37.254+225.669+37.962+224.829+38.458C223.989+38.954+223.057+39.202+222.033+39.202C221.089+39.202+220.249+38.974+219.513+38.518C218.777+38.062+218.185+37.406+217.737+36.55L218.313+35.974C218.713+36.686+219.197+37.226+219.765+37.594C220.333+37.962+220.945+38.146+221.601+38.146C222.233+38.146+222.801+37.974+223.305+37.63C223.809+37.286+224.207+36.758+224.499+36.046C224.791+35.334+224.937+34.438+224.937+33.358C224.937+32.334+224.797+31.48+224.517+30.796C224.237+30.112+223.855+29.596+223.371+29.248C222.887+28.9+222.333+28.726+221.709+28.726C221.077+28.726+220.473+28.91+219.897+29.278C219.321+29.646+218.793+30.202+218.313+30.946Z" opacity="1" fill="#ed9700"/>
<path d="M238.196+37.594L238.196+36.766L238.136+36.706L238.136+29.806C238.136+29.638+238.106+29.514+238.046+29.434C237.986+29.354+237.888+29.31+237.752+29.302L236.936+29.266C236.808+29.242+236.716+29.204+236.66+29.152C236.604+29.1+236.576+29.03+236.576+28.942C236.576+28.838+236.608+28.754+236.672+28.69C236.736+28.626+236.852+28.566+237.02+28.51L239.06+27.802C239.3+27.714+239.496+27.65+239.648+27.61C239.8+27.57+239.936+27.55+240.056+27.55C240.248+27.55+240.392+27.604+240.488+27.712C240.584+27.82+240.632+27.966+240.632+28.15L240.632+37.33C240.632+37.538+240.672+37.696+240.752+37.804C240.832+37.912+240.948+37.986+241.1+38.026L241.664+38.146C241.8+38.186+241.9+38.238+241.964+38.302C242.028+38.366+242.06+38.45+242.06+38.554C242.06+38.666+242.018+38.756+241.934+38.824C241.85+38.892+241.72+38.926+241.544+38.926L239.384+38.926C239.024+38.926+238.736+38.808+238.52+38.572C238.304+38.336+238.196+38.01+238.196+37.594ZM230.684+35.686L230.684+29.806C230.684+29.638+230.654+29.514+230.594+29.434C230.534+29.354+230.44+29.31+230.312+29.302L229.484+29.266C229.356+29.242+229.264+29.204+229.208+29.152C229.152+29.1+229.124+29.03+229.124+28.942C229.124+28.838+229.156+28.754+229.22+28.69C229.284+28.626+229.4+28.566+229.568+28.51L231.62+27.802C231.868+27.706+232.066+27.64+232.214+27.604C232.362+27.568+232.488+27.55+232.592+27.55C232.792+27.55+232.942+27.604+233.042+27.712C233.142+27.82+233.192+27.966+233.192+28.15L233.192+35.302C233.192+36.11+233.386+36.712+233.774+37.108C234.162+37.504+234.676+37.702+235.316+37.702C235.716+37.702+236.142+37.6+236.594+37.396C237.046+37.192+237.532+36.87+238.052+36.43L238.568+35.986L239.012+36.442L238.496+36.886C237.552+37.742+236.726+38.342+236.018+38.686C235.31+39.03+234.636+39.202+233.996+39.202C233.004+39.202+232.204+38.886+231.596+38.254C230.988+37.622+230.684+36.766+230.684+35.686Z" opacity="1" fill="#ed9700"/>
<path d="M248.844+38.362C249.444+38.362+249.916+38.204+250.26+37.888C250.604+37.572+250.776+37.166+250.776+36.67C250.776+36.366+250.702+36.088+250.554+35.836C250.406+35.584+250.144+35.356+249.768+35.152C249.392+34.948+248.852+34.754+248.148+34.57C247.052+34.314+246.194+34.002+245.574+33.634C244.954+33.266+244.52+32.846+244.272+32.374C244.024+31.902+243.9+31.382+243.9+30.814C243.9+29.798+244.262+28.984+244.986+28.372C245.71+27.76+246.74+27.454+248.076+27.454C248.58+27.454+248.994+27.498+249.318+27.586C249.642+27.674+249.912+27.764+250.128+27.856C250.344+27.948+250.528+27.994+250.68+27.994C250.84+27.994+250.964+27.948+251.052+27.856C251.14+27.764+251.226+27.674+251.31+27.586C251.394+27.498+251.504+27.454+251.64+27.454C251.736+27.454+251.82+27.484+251.892+27.544C251.964+27.604+252.028+27.718+252.084+27.886L252.948+30.454C253.02+30.662+253.042+30.836+253.014+30.976C252.986+31.116+252.9+31.214+252.756+31.27C252.62+31.326+252.5+31.326+252.396+31.27C252.292+31.214+252.192+31.114+252.096+30.97C251.744+30.298+251.36+29.768+250.944+29.38C250.528+28.992+250.09+28.716+249.63+28.552C249.17+28.388+248.692+28.306+248.196+28.306C247.444+28.306+246.878+28.466+246.498+28.786C246.118+29.106+245.928+29.534+245.928+30.07C245.928+30.382+246.01+30.67+246.174+30.934C246.338+31.198+246.632+31.44+247.056+31.66C247.48+31.88+248.08+32.09+248.856+32.29C249.824+32.522+250.594+32.806+251.166+33.142C251.738+33.478+252.15+33.88+252.402+34.348C252.654+34.816+252.78+35.362+252.78+35.986C252.78+36.618+252.622+37.176+252.306+37.66C251.99+38.144+251.544+38.522+250.968+38.794C250.392+39.066+249.72+39.202+248.952+39.202C248.464+39.202+248.068+39.15+247.764+39.046C247.46+38.942+247.206+38.84+247.002+38.74C246.798+38.64+246.608+38.59+246.432+38.59C246.28+38.59+246.156+38.64+246.06+38.74C245.964+38.84+245.872+38.942+245.784+39.046C245.696+39.15+245.588+39.202+245.46+39.202C245.372+39.202+245.296+39.17+245.232+39.106C245.168+39.042+245.12+38.934+245.088+38.782L244.572+36.358C244.516+36.086+244.5+35.886+244.524+35.758C244.548+35.63+244.624+35.538+244.752+35.482C244.896+35.434+245.018+35.446+245.118+35.518C245.218+35.59+245.324+35.718+245.436+35.902C245.9+36.774+246.426+37.402+247.014+37.786C247.602+38.17+248.212+38.362+248.844+38.362Z" opacity="1" fill="#ed9700"/>
</g>
</g>
</svg>
