<?xml version="1.0" encoding="utf-8" standalone="yes"?>
<!DOCTYPE svg PUBLIC "-//W3C//DTD SVG 1.1//EN" "http://www.w3.org/Graphics/SVG/1.1/DTD/svg11.dtd">
<svg xmlns="http://www.w3.org/2000/svg" xmlns:xlink="http://www.w3.org/1999/xlink" xmlns:dc="http://purl.org/dc/elements/1.1/" xmlns:cc="http://web.resource.org/cc/" xmlns:rdf="http://www.w3.org/1999/02/22-rdf-syntax-ns#" xmlns:sodipodi="http://sodipodi.sourceforge.net/DTD/sodipodi-0.dtd" xmlns:inkscape="http://www.inkscape.org/namespaces/inkscape" version="1.1" baseProfile="full" width="200px" height="200px" viewBox="0 0 200 200" preserveAspectRatio="xMidYMid meet" id="svg_document" style="zoom: 1;"><!-- Created with macSVG - https://macsvg.org/ - https://github.com/dsward2/macsvg/ --><path d="M193.662994,84.813995 c-1.14,-1.592 -2.852,-2.83 -4.686,-3.566 c-0.456,-0.19 -0.914,-0.348 -1.458,-0.502 l-0.594,-0.166 l-0.746,-0.16 c-0.926,-0.186 -1.91,-0.318 -2.964,-0.34 c-1.054,-0.016 -2.182,0.096 -3.326,0.388 c-1.142,0.288 -2.29,0.778 -3.326,1.422 c-2.1,1.294 -3.656,3.104 -4.846,4.856 c-2.374,3.548 -3.756,7.094 -5.264,10.406 c-1.486,3.308 -3.036,6.402 -4.908,8.978 c-1.798,2.51 -4.052,4.38 -6.368,5.646 c-5.724,1.962 -10.45,4.43 -13.422,0.56 c-1.944,-2.532 0.152,-4.742 2.264,-7.31 c0.504,-0.564 1.008,-1.15 1.516,-1.79 c1.222,-1.57 2.376,-3.222 3.416,-4.958 c1.056,-1.724 2.012,-3.522 2.912,-5.344 c0.902,-1.822 1.722,-3.694 2.412,-5.614 c1.372,-3.838 2.284,-7.86 2.512,-11.886 c0.212,-4.022 -0.206,-8.02 -1.256,-11.7 c-0.256,-0.92 -0.568,-1.816 -0.91,-2.69 c-0.21,-0.566 -0.296,-0.756 -0.524,-1.294 c-0.198,-0.478 -0.386,-0.876 -0.598,-1.3 c-0.828,-1.672 -1.814,-3.206 -2.926,-4.578 c-2.21,-2.744 -4.948,-4.864 -7.87,-6.022 c-1.458,-0.574 -2.938,-0.928 -4.364,-1.026 c-1.392,-0.116 -2.804,-0.026 -4.076,0.332 c-1.282,0.348 -2.422,0.994 -3.276,1.796 c-0.862,0.8 -1.43,1.738 -1.752,2.64 c-0.64,1.796 -0.366,3.536 0.542,4.46 c0.442,0.458 0.954,0.618 1.258,0.666 c0.312,0.048 0.466,0.032 0.466,0.032 c0.38,0.012 0.7,-0.286 0.712,-0.668 c0.01,-0.38 -0.29,-0.7 -0.668,-0.71 c0.008,-0.014 -0.334,-0.002 -0.566,-0.37 c-0.122,-0.186 -0.22,-0.522 -0.204,-0.98 c0.018,-0.454 0.162,-1.012 0.468,-1.562 c0.598,-1.118 1.892,-2.106 3.662,-2.296 c0.886,-0.106 1.86,-0.042 2.912,0.21 c1.026,0.244 2.054,0.682 3.048,1.274 c1.974,1.206 3.8,3.086 5.17,5.426 c0.688,1.166 1.26,2.444 1.692,3.788 c0.106,0.33 0.216,0.694 0.29,0.998 c0.056,0.238 0.228,0.836 0.244,1.07 c0.124,0.728 0.224,1.464 0.3,2.208 c0.292,2.976 0.052,6.084 -0.67,9.124 c-0.702,3.044 -1.812,6.046 -3.326,8.846 c-0.756,1.4 -1.592,2.758 -2.518,4.042 c-0.93,1.284 -1.984,2.47 -3.072,3.588 c-1.1,1.114 -2.25,2.154 -3.42,3.126 c-1.18,0.986 -2.346,1.96 -3.492,2.918 c-0.636,0.532 -1.264,1.064 -1.884,1.6 c-5.008,4.118 -7.936,5.96 -10.046,6.602 c2.102,-5.702 3.312,-11.946 3.312,-17.757999 c0,-17.016001 -10.76,-22.07 -23.115999,-23.906 c-12.354,1.836 -23.112,6.888 -23.112,23.906 c0,5.696 1.164,11.8 3.186,17.408001 c-3.332,-1.4 -8.062,-4.766 -12.876,-10.908 c-1.24,-1.758 -2.542,-3.546 -3.918,-5.36 c-0.694,-0.87 -1.356,-1.774 -2.042,-2.686 c-0.706,-0.898 -1.384,-1.83 -2.076,-2.774 c-1.358,-1.896 -2.686,-3.882 -3.894,-5.984 c-0.29,-0.53 -0.58,-1.062 -0.872,-1.598 l-0.438,-0.806 c-0.036,-0.078 0.016,0.05 0.002,0.016 l-0.026,-0.056 l-0.05,-0.112 l-0.1,-0.224 l-0.202,-0.448 l-0.402,-0.898 l-0.338,-0.806 c-0.226,-0.526 -0.45,-1.084 -0.666,-1.658 c-0.868,-2.272 -1.616,-4.602 -2.138,-6.966 c-1.076,-4.72 -1.316,-9.602 -0.306,-14.168 c0.982,-4.562 3.23,-8.808 6.54,-12.154 c3.286,-3.35 7.528,-5.824 11.902,-7.072 c2.18,-0.63 4.404,-0.966 6.466,-0.886 c0.516,0.016 1.014,0.066 1.5,0.134 c0.238,0.042 0.48,0.076 0.708,0.13 l0.348,0.078 l0.444,0.11 c1.112,0.278 2.148,0.568 3.04,0.93 c0.9,0.356 1.636,0.77 2.266,1.31 c0.638,0.528 1.18,1.21 1.66,2.008 l0.178,0.302 l0.042,0.076 l0.024,0.038 c0.034,0.068 -0.02,-0.052 -0.006,-0.022 l0.094,0.186 l0.186,0.37 l0.12,0.268 c0.164,0.338 0.302,0.778 0.416,1.164 c0.2,0.798 0.266,1.602 0.196,2.408 c-0.162,1.608 -0.856,3.212 -1.85,4.602 c-0.386,0.514 -0.966,1.092 -1.548,1.502 c-0.596,0.424 -1.238,0.756 -1.9,0.978 c-1.322,0.438 -2.696,0.494 -3.884,0.196 c-0.3,-0.06 -0.58,-0.166 -0.86,-0.26 l-0.052,-0.018 c0.082,0.042 0.006,0.002 0.016,0.008 l-0.03,-0.012 l-0.118,-0.054 l-0.234,-0.108 c-0.174,-0.074 -0.266,-0.136 -0.376,-0.198 c-0.45,-0.246 -0.916,-0.59 -1.266,-0.95 c-0.748,-0.712 -1.2,-1.552 -1.474,-2.314 c-0.27,-0.772 -0.338,-1.484 -0.344,-2.058 c0.004,-0.288 0.012,-0.544 0.044,-0.764 c0.026,-0.222 0.048,-0.41 0.086,-0.556 c0.064,-0.298 0.096,-0.454 0.096,-0.454 l0.016,-0.07 c0.07,-0.34 -0.126,-0.688 -0.466,-0.796 c-0.364,-0.114 -0.752,0.086 -0.866,0.45 c0,0 -0.054,0.176 -0.166,0.522 c-0.06,0.17 -0.112,0.39 -0.166,0.656 c-0.068,0.262 -0.108,0.572 -0.146,0.926 c-0.064,0.708 -0.068,1.612 0.184,2.64 c0.256,1.02 0.744,2.184 1.644,3.238 c0.448,0.54 0.96,1.022 1.634,1.486 c0.168,0.116 0.356,0.244 0.49,0.316 l0.222,0.128 l0.112,0.064 l0.028,0.016 l0.076,0.042 l0.068,0.032 c0.364,0.17 0.736,0.348 1.136,0.474 c1.584,0.562 3.47,0.688 5.384,0.254 c0.958,-0.224 1.91,-0.606 2.818,-1.14 c0.918,-0.546 1.736,-1.182 2.562,-2.108 c1.32,-1.548 2.59,-3.53 3.128,-6.008 c0.262,-1.232 0.314,-2.564 0.134,-3.878 c-0.106,-0.666 -0.226,-1.282 -0.452,-1.968 l-0.164,-0.5 l-0.144,-0.388 l-0.07,-0.194 l-0.124,-0.282 l-0.198,-0.442 c-0.542,-1.176 -1.276,-2.398 -2.292,-3.47 c-1,-1.086 -2.242,-1.966 -3.48,-2.62 c-1.24,-0.668 -2.478,-1.154 -3.682,-1.6 l-0.428,-0.158 c-0.168,-0.064 -0.354,-0.114 -0.53,-0.17 c-0.36,-0.118 -0.716,-0.206 -1.078,-0.296 c-0.718,-0.168 -1.442,-0.302 -2.164,-0.386 c-2.894,-0.356 -5.778,-0.144 -8.612,0.418 c-5.652,1.162 -11.156,3.814 -15.8,7.86 c-4.646,4.022 -8.256,9.602 -10.006,15.71 c-1.764,6.116 -1.782,12.516 -0.816,18.408001 c0.468,2.962 1.198,5.818 2.056,8.564 c0.212,0.684 0.438,1.372 0.69,2.074 l0.368,1.04 l0.346,0.92 c0.49,1.314 0.976,2.62 1.458,3.914 c1.996,5.122 4.084,10.072 6.656,14.408 c0.36,0.614 0.73,1.208 1.11,1.794 c5.764,9.388 11.728,10.736 8.38,14.332 c-1.718,1.844 -4.776,2.34 -8.062,1.938 c-0.074,-0.01 -0.148,-0.016 -0.218,-0.026 c-0.19,-0.026 -0.382,-0.06 -0.574,-0.092 c-0.308,-0.05 -0.618,-0.112 -0.926,-0.174 c-0.202,-0.042 -0.404,-0.084 -0.608,-0.13 c-0.06,-0.014 -0.12,-0.03 -0.178,-0.042 c-1.516,-0.378 -3.018,-0.918 -4.406,-1.582 l-0.608,-0.308 c-2.392,-1.26 -4.732,-3.166 -6.594,-5.746 c-1.88,-2.568 -3.438,-5.658 -4.934,-8.962 c-1.518,-3.306 -2.912,-6.85 -5.296,-10.39 c-1.194,-1.75 -2.756,-3.552 -4.86,-4.844 c-1.038,-0.638 -2.186,-1.126 -3.33,-1.412 c-1.144,-0.288 -2.272,-0.396 -3.328,-0.376 c-1.054,0.022 -2.04,0.16 -2.96,0.346 l-0.746,0.164 l-0.594,0.168 c-0.542,0.156 -1.002,0.314 -1.458,0.504 c-1.832,0.746 -3.54,1.986 -4.674,3.584 c-1.156,1.584 -1.698,3.424 -1.738,5.104 c-0.048,1.686 0.342,3.242 1.024,4.542 c0.678,1.304 1.67,2.364 2.804,3.024 c1.134,0.67 2.374,0.882 3.394,0.82 c1.034,-0.052 1.868,-0.35 2.536,-0.642 c0.664,-0.306 1.17,-0.634 1.558,-0.92 c0.388,-0.282 0.666,-0.516 0.848,-0.676 c0.18,-0.162 0.274,-0.246 0.274,-0.246 c0.234,-0.208 0.304,-0.558 0.148,-0.848 c-0.184,-0.336 -0.602,-0.458 -0.94,-0.278 l-0.034,0.02 c0,0 -0.098,0.054 -0.29,0.156 c-0.19,0.106 -0.474,0.252 -0.852,0.41 c-0.734,0.312 -1.912,0.724 -3.172,0.516 c-1.236,-0.192 -2.412,-1.146 -2.868,-2.796 c-0.228,-0.804 -0.254,-1.74 -0.034,-2.62 c0.226,-0.876 0.668,-1.682 1.328,-2.276 c0.658,-0.6 1.524,-1.014 2.582,-1.224 c0.266,-0.058 0.55,-0.092 0.762,-0.11 l0.552,-0.054 l0.038,-0.004 c0.03,-0.004 -0.114,0.022 -0.04,0.01 l0.058,-0.002 l0.122,-0.004 l0.24,-0.008 c0.634,-0.016 1.25,0.014 1.814,0.108 c1.138,0.194 1.994,0.584 2.7,1.236 c0.712,0.642 1.376,1.618 1.978,2.898 c0.602,1.274 1.132,2.792 1.642,4.426 c0.532,1.712 1.07,3.446 1.614,5.194 c1.13,3.624 2.474,7.54 4.574,11.384 c2.074,3.844 4.862,7.67 8.55,10.68 l1.314,1.034 c0.54,0.4 1.002,0.702 1.518,1.036 c1.022,0.636 2.084,1.212 3.182,1.702 c2.196,0.968 4.508,1.636 6.78,1.936 c1.344,0.194 2.658,0.26 3.946,0.244 c0.012,0.02 0.022,0.04 0.022,0.04 s5.382,-0.058 7.648,2.332 c0.68,0.718 1.42,1.574 1.08,3.542 c-0.416,2.402 -1.73,3.52 -5.2,3.418 c-0.002,0 -0.004,0 -0.004,0 c-2.868,-0.224 -5.84,-0.314 -8.768,-0.024 c-2.924,0.276 -5.794,0.998 -8.3,2.132 c-1.264,0.584 -2.37,1.166 -3.57,2.042 c-0.63,0.458 -1.126,0.94 -1.62,1.484 c-0.468,0.564 -0.89,1.156 -1.204,1.812 c-0.656,1.294 -0.892,2.746 -0.738,4.052 c0.156,1.312 0.674,2.478 1.4,3.37 c0.728,0.89 1.65,1.526 2.592,1.828 c0.942,0.312 1.854,0.324 2.608,0.194 c1.516,-0.302 2.426,-0.986 2.974,-1.45 c0.292,-0.222 0.464,-0.434 0.604,-0.556 c0.128,-0.128 0.198,-0.196 0.198,-0.196 c0.22,-0.216 0.274,-0.566 0.108,-0.846 c-0.196,-0.326 -0.618,-0.432 -0.948,-0.236 l-0.06,0.036 c0,0 -0.072,0.042 -0.206,0.124 c-0.138,0.07 -0.324,0.216 -0.596,0.332 c-0.516,0.268 -1.34,0.586 -2.268,0.548 c-0.46,-0.032 -0.93,-0.162 -1.348,-0.43 c-0.422,-0.258 -0.776,-0.676 -1.03,-1.172 c-0.5,-1.02 -0.41,-2.398 0.462,-3.386 c0.402,-0.502 1.042,-0.968 1.734,-1.294 c0.7,-0.346 1.762,-0.672 2.756,-0.884 c2.032,-0.448 4.226,-0.5 6.536,-0.276 c2.31,0.22 4.732,0.768 7.284,1.424 c1.282,0.336 2.59,0.7 3.958,1.06 c0.196,0.072 0.394,0.138 0.604,0.196 c7.88,2.164 17.591999,10.64 10.738,20.118 c-0.234,0.268 -0.474,0.528 -0.724,0.774 c-1.646,1.656 -3.68,2.874 -6.03,3.648 c-0.58,0.202 -1.186,0.352 -1.79,0.514 c-0.312,0.066 -0.618,0.13 -0.924,0.198 c-0.092,0.058 -0.742,0.12 -0.818,0.142 c-0.932,0.138 -2.072,0.078 -3.094,-0.146 c-2.064,-0.464 -3.986,-1.542 -4.988,-2.942 c-0.504,-0.694 -0.762,-1.45 -0.79,-2.236 c0.002,-0.088 -0.016,-0.222 0.002,-0.276 c0.022,-0.124 0.046,-0.276 0.066,-0.338 c0.032,-0.148 0.094,-0.364 0.164,-0.542 c0.136,-0.376 0.322,-0.73 0.538,-1.058 c0.862,-1.322 2.142,-2.09 3.176,-2.216 c1.048,-0.14 1.87,0.262 2.36,0.63 c0.252,0.182 0.434,0.348 0.548,0.464 c0.12,0.118 0.18,0.18 0.18,0.18 l0.042,0.042 c0.242,0.246 0.634,0.272 0.914,0.05 c0.296,-0.236 0.346,-0.67 0.11,-0.966 c0,0 -0.066,-0.086 -0.196,-0.248 s-0.332,-0.402 -0.642,-0.682 c-0.302,-0.284 -0.72,-0.612 -1.298,-0.878 c-0.57,-0.274 -1.312,-0.458 -2.142,-0.446 c-1.67,0.038 -3.55,0.948 -4.952,2.648 c-0.35,0.428 -0.672,0.906 -0.944,1.448 c-0.138,0.272 -0.254,0.538 -0.37,0.878 c-0.066,0.186 -0.092,0.286 -0.13,0.414 l-0.136,0.5 c-0.346,1.302 -0.222,2.84 0.316,4.218 c0.534,1.386 1.428,2.624 2.508,3.688 c1.082,1.068 2.38,1.95 3.834,2.644 c1.474,0.686 3.042,1.186 4.904,1.37 c0.62,0.042 0.67,0.076 1.282,0.074 c0.396,0.006 0.796,0.012 1.198,0.018 c0.806,-0.02 1.626,-0.046 2.464,-0.146 c1.672,-0.178 3.408,-0.53 5.132,-1.12 s3.422,-1.436 4.994,-2.474 c3.162,-2.094 5.69,-4.92 7.7,-7.764 c1.016,-1.426 1.916,-2.872 2.776,-4.294 c0.502,-0.828 0.996,-1.65 1.494,-2.476 c2.282,-2.918 6.126,-5.504 10.542,-6.138 c5.074,0.144 9.596,2.986 12.16,6.244 c0.498,0.824 0.996,1.646 1.5,2.472 c0.864,1.422 1.77,2.866 2.79,4.288 c2.016,2.836 4.554,5.656 7.72,7.738 c1.576,1.036 3.276,1.876 5.002,2.46 c1.726,0.586 3.462,0.93 5.136,1.106 c0.838,0.098 1.66,0.12 2.464,0.136 c0.4,-0.006 0.8,-0.014 1.198,-0.02 c0.61,0 0.662,-0.036 1.282,-0.078 c1.862,-0.19 3.428,-0.694 4.898,-1.384 c1.452,-0.7 2.748,-1.584 3.828,-2.654 c1.076,-1.066 1.968,-2.306 2.496,-3.696 c0.534,-1.378 0.654,-2.918 0.302,-4.218 l-0.136,-0.5 c-0.042,-0.128 -0.066,-0.23 -0.132,-0.414 c-0.118,-0.344 -0.232,-0.606 -0.372,-0.88 c-0.274,-0.538 -0.598,-1.016 -0.95,-1.442 c-1.404,-1.698 -3.286,-2.602 -4.958,-2.632 c-0.832,-0.012 -1.574,0.174 -2.142,0.452 c-0.576,0.27 -0.994,0.6 -1.296,0.88 c-0.308,0.282 -0.512,0.522 -0.638,0.686 c-0.128,0.162 -0.196,0.248 -0.196,0.248 c-0.214,0.272 -0.198,0.664 0.054,0.914 c0.266,0.268 0.704,0.268 0.972,0 l0.042,-0.042 c0,0 0.058,-0.062 0.178,-0.18 c0.116,-0.12 0.296,-0.286 0.546,-0.466 c0.49,-0.372 1.31,-0.774 2.358,-0.636 c1.036,0.124 2.318,0.886 3.184,2.208 c0.212,0.326 0.4,0.682 0.542,1.054 c0.07,0.182 0.132,0.396 0.166,0.544 c0.018,0.06 0.042,0.212 0.068,0.336 c0.016,0.054 0,0.188 0.002,0.276 c-0.03,0.79 -0.284,1.544 -0.786,2.238 c-0.998,1.402 -2.916,2.486 -4.978,2.958 c-1.022,0.228 -2.162,0.292 -3.092,0.156 c-0.078,-0.024 -0.726,-0.082 -0.82,-0.14 c-0.304,-0.064 -0.614,-0.13 -0.922,-0.196 c-0.606,-0.158 -1.212,-0.306 -1.794,-0.508 c-2.352,-0.766 -4.386,-1.978 -6.04,-3.628 c-0.246,-0.244 -0.486,-0.502 -0.72,-0.766 c-6.892,-9.458 2.796,-17.966 10.674,-20.153999 c0.208,-0.058 0.406,-0.126 0.604,-0.2 c1.368,-0.366 2.672,-0.732 3.954,-1.07 c2.548,-0.664 4.968,-1.216 7.278,-1.448 s4.504,-0.184 6.538,0.258 c0.996,0.208 2.058,0.532 2.758,0.876 c0.694,0.322 1.336,0.786 1.74,1.286 c0.876,0.988 0.968,2.37 0.47,3.386 c-0.252,0.498 -0.606,0.918 -1.026,1.178 c-0.416,0.268 -0.886,0.4 -1.346,0.432 c-0.93,0.042 -1.752,-0.276 -2.27,-0.542 c-0.274,-0.116 -0.458,-0.262 -0.596,-0.332 c-0.136,-0.08 -0.206,-0.122 -0.206,-0.122 l-0.062,-0.038 c-0.268,-0.16 -0.618,-0.124 -0.846,0.11 c-0.268,0.274 -0.264,0.708 0.01,0.976 c0,0 0.068,0.066 0.2,0.194 c0.138,0.124 0.31,0.334 0.606,0.556 c0.548,0.458 1.458,1.14 2.974,1.44 c0.756,0.126 1.668,0.116 2.61,-0.202 c0.942,-0.306 1.86,-0.944 2.586,-1.836 c0.724,-0.892 1.238,-2.062 1.39,-3.374 c0.15,-1.308 -0.09,-2.76 -0.75,-4.05 c-0.314,-0.654 -0.738,-1.246 -1.208,-1.806 c-0.494,-0.544 -0.992,-1.024 -1.624,-1.482 c-1.204,-0.874 -2.312,-1.452 -3.576,-2.032 c-2.51,-1.126 -5.382,-1.844 -8.306,-2.108 c-2.932,-0.286 -5.904,-0.186 -8.774,0.048 c-3.466,0.112 -4.786,-1.002 -5.208,-3.402 c-0.346,-1.968 0.39,-2.828 1.07,-3.548 c2.256,-2.392 7.64,-2.356 7.64,-2.356 s0.012,-0.018 0.022,-0.036 c1.286,0.01 2.6,-0.06 3.944,-0.256 c2.272,-0.306 4.58,-0.98 6.776,-1.958 c1.094,-0.492 2.154,-1.072 3.174,-1.708 c0.516,-0.338 0.978,-0.64 1.516,-1.042 l1.31,-1.038 c3.682,-3.022 6.458,-6.856 8.52,-10.706 c2.086,-3.854 3.42,-7.772 4.542,-11.398 c0.538,-1.75 1.07,-3.484 1.598,-5.2 c0.504,-1.634 1.032,-3.156 1.63,-4.43 c0.598,-1.284 1.26,-2.258 1.968,-2.904 c0.704,-0.654 1.558,-1.044 2.694,-1.244 c0.566,-0.094 1.182,-0.126 1.818,-0.112 l0.236,0.008 l0.122,0.004 l0.058,0 c0.076,0.012 -0.066,-0.016 -0.038,-0.01 l0.038,0.002 l0.55,0.052 c0.212,0.016 0.5,0.05 0.766,0.106 c1.056,0.208 1.924,0.62 2.582,1.214 c0.662,0.594 1.11,1.4 1.338,2.274 c0.22,0.878 0.2,1.814 -0.028,2.618 c-0.452,1.652 -1.624,2.614 -2.86,2.808 c-1.258,0.21 -2.438,-0.198 -3.172,-0.508 c-0.376,-0.156 -0.662,-0.302 -0.854,-0.406 s-0.292,-0.156 -0.292,-0.156 l-0.034,-0.02 c-0.278,-0.15 -0.63,-0.094 -0.848,0.152 c-0.252,0.286 -0.224,0.724 0.062,0.976 c0,0 0.094,0.082 0.276,0.244 c0.18,0.158 0.458,0.392 0.848,0.674 c0.388,0.284 0.896,0.612 1.562,0.914 c0.668,0.292 1.502,0.586 2.538,0.636 c1.02,0.056 2.258,-0.16 3.39,-0.832 c1.132,-0.664 2.124,-1.726 2.794,-3.032 c0.678,-1.304 1.062,-2.86 1.012,-4.544 C195.371002,88.235992 194.825043,86.394012 193.662994,84.813995 " id="path1" fill="#333"></path></svg>